<?xml version="1.0" encoding="UTF-8"?>
<svg version="1.1" xmlns="http://www.w3.org/2000/svg" width="1426" height="966">
<path d="M0 0 C1.65622665 0.31736018 3.31255994 0.63416433 4.96899414 0.95043945 C19.66271534 3.79282265 34.19513651 7.20248227 48.6875 10.9375 C50.17043459 11.3104463 51.65348801 11.68292076 53.13671875 12.0546875 C63.106746 14.61871151 72.90281967 17.74829351 82.6875 20.9375 C83.45843994 21.18790039 84.22937988 21.43830078 85.02368164 21.69628906 C90.18522418 23.39159491 95.23054874 25.28195424 100.26342773 27.33154297 C100.93188721 27.60369629 101.60034668 27.87584961 102.2890625 28.15625 C102.99063477 28.44242188 103.69220703 28.72859375 104.41503906 29.0234375 C106.85954935 30.00670421 109.31543034 30.95725509 111.7734375 31.90625 C129.7108003 38.91690566 147.10175801 47.53036988 162.6875 58.9375 C164.01974609 59.90236328 164.01974609 59.90236328 165.37890625 60.88671875 C175.15288218 68.30095682 180.64687403 76.85920117 185.6875 87.9375 C186.17734375 88.989375 186.6671875 90.04125 187.171875 91.125 C189.61444071 96.61391171 191.3727577 100.90723227 190.6875 106.9375 C191.6775 106.9375 192.6675 106.9375 193.6875 106.9375 C195.39761617 108.55955371 197.05849082 110.2340081 198.6875 111.9375 C200.46240535 113.39564495 202.25448491 114.83311711 204.0625 116.25 C208.85780434 120.14378712 212.78526939 124.17628781 216.6875 128.9375 C217.51894531 129.89398438 218.35039063 130.85046875 219.20703125 131.8359375 C225.38343077 138.94493389 231.0393941 146.2877202 236.36914062 154.0546875 C237.34388685 155.44676951 238.34710116 156.81901587 239.36523438 158.1796875 C243.8873209 164.32972518 246.92800792 170.46370798 249.6875 177.5625 C250.14552002 178.71363281 250.60354004 179.86476562 251.07543945 181.05078125 C257.18845057 196.48439692 262.93572123 212.06438074 268.71386719 227.62548828 C270.65982393 232.86592409 272.61449071 238.10308343 274.5703125 243.33984375 C289.90871866 284.42902154 305.12321446 325.56663772 319.6875 366.9375 C319.95739746 367.70251831 320.22729492 368.46753662 320.50537109 369.2557373 C335.78019764 412.57251405 349.46722614 456.47352237 362.03436279 500.64855957 C362.6788776 502.90728251 363.32894278 505.16432994 363.98095703 507.42089844 C384.23559854 577.58447839 399.71833287 649.84104991 403.9375 722.875 C403.97888092 723.59067139 404.02026184 724.30634277 404.06289673 725.04370117 C407.69882357 789.83033238 396.92272551 856.65950621 354.0625 907.3125 C350.56216018 911.21264553 346.7215064 914.60154571 342.6875 917.9375 C341.94886719 918.56398438 341.21023438 919.19046875 340.44921875 919.8359375 C322.30399803 934.86291243 291.76082681 954.61271 267.6875 955.9375 C265.4375 954 265.4375 954 263.6875 951.9375 C263.0275 951.9375 262.3675 951.9375 261.6875 951.9375 C261.0275 952.5975 260.3675 953.2575 259.6875 953.9375 C259.00945312 952.93332031 258.33140625 951.92914062 257.6328125 950.89453125 C251.59676617 942.00494211 245.3531616 933.36432303 238.6875 924.9375 C237.99914063 924.06609375 237.31078125 923.1946875 236.6015625 922.296875 C234.64207584 919.83396291 232.66597157 917.38517431 230.6875 914.9375 C230.01460937 914.08929687 229.34171875 913.24109375 228.6484375 912.3671875 C223.28259657 905.67452045 217.55276917 899.40277163 211.6875 893.15234375 C208.87982123 890.157083 206.16697558 887.09194201 203.484375 883.984375 C200.66387211 880.77145432 197.76115444 877.63393003 194.86352539 874.49072266 C192.03709912 871.42192157 189.25716941 868.31896965 186.5 865.1875 C181.72574289 859.85207343 176.64151276 854.83554419 171.53442383 849.82128906 C167.64972728 845.9868938 163.96269699 842.06120007 160.43017578 837.89892578 C158.2771807 835.47567522 155.99305828 833.21618599 153.6875 830.9375 C152.6979004 829.94923547 151.70899987 828.96027056 150.72070312 827.97070312 C150.19665894 827.44665894 149.67261475 826.92261475 149.13269043 826.38269043 C129.65429687 806.90429687 129.65429687 806.90429687 128.13883972 805.38870239 C126.74237824 803.99237304 125.34544196 802.59651857 123.94848633 801.20068359 C122.39116601 799.64184985 120.83965049 798.07720245 119.29296875 796.5078125 C115.58444558 792.75735127 111.89631394 789.0414129 107.875 785.625 C103.54577705 781.92803679 99.58199524 777.88818842 95.60620117 773.8190918 C92.12956501 770.28640693 88.50831337 766.99869953 84.75830078 763.75878906 C81.20045344 760.62962835 77.80116366 757.33425389 74.375 754.0625 C68.81648001 748.78884662 63.20619305 743.75510078 57.203125 738.9921875 C54.54858123 736.82403529 52.06317386 734.53094586 49.5625 732.1875 C13.95715225 699.52390463 -23.19828053 686.77383139 -71.17041016 686.79223633 C-72.48720859 686.78892587 -73.80400702 686.78561541 -75.16070843 686.78220463 C-78.78896146 686.77350402 -82.41719189 686.77121675 -86.04545426 686.77045774 C-89.20122348 686.76918989 -92.35698558 686.76467116 -95.51275188 686.76036549 C-106.06060517 686.74642705 -116.60844002 686.74685059 -127.15630007 686.74952459 C-129.9348163 686.74999954 -132.71333176 686.74984959 -135.49184799 686.74946976 C-206.27334896 686.74004343 -277.04917388 687.21390783 -347.82764339 687.84143019 C-351.61513743 687.87491281 -355.40263426 687.90806031 -359.19013214 687.94110489 C-374.8957405 688.0783167 -390.60128228 688.22154076 -406.30678201 688.37066221 C-409.59471528 688.40158142 -412.88265537 688.43163225 -416.17059898 688.4614296 C-438.68674214 688.66693719 -461.19924528 688.95169007 -483.71166992 689.41625977 C-485.15959016 689.44518147 -485.15959016 689.44518147 -486.63676131 689.47468746 C-541.09287612 690.57830666 -583.33974724 695.96290739 -624.6171875 734.453125 C-626.72198211 736.39319655 -628.84898343 738.28229457 -631.01074219 740.15722656 C-645.5807256 752.89199396 -659.20260322 766.66647473 -672.86376953 780.35839844 C-675.44751777 782.94791167 -678.03582744 785.53281233 -680.62542152 788.11647797 C-682.65543509 790.14285774 -684.68303655 792.17163769 -686.70994186 794.2011261 C-688.11930247 795.61145909 -689.53064285 797.01981282 -690.94204712 798.42810059 C-695.41099447 802.91332285 -699.75204795 807.44579666 -703.86032104 812.26513672 C-706.05452251 814.79203049 -708.41796019 817.0993023 -710.8125 819.4375 C-714.62119334 823.18899794 -718.23216876 827.04339769 -721.703125 831.109375 C-723.33836434 832.96687988 -725.04731793 834.70356009 -726.8125 836.4375 C-732.83527826 842.3797957 -738.12670724 848.87317279 -743.3203125 855.54296875 C-745.51065708 858.17567704 -747.87473781 860.53287959 -750.3125 862.9375 C-756.55652564 869.54103014 -762.50794274 876.28619611 -768.20703125 883.3671875 C-770.13995843 885.72686484 -772.13546619 887.99401151 -774.1875 890.25 C-783.44425483 900.56780578 -791.64491265 911.86989265 -799.88232422 923.00439453 C-800.80339317 924.24936278 -801.72672236 925.4926636 -802.65283203 926.73388672 C-814.17702927 941.90664945 -814.17702927 941.90664945 -822.3125 958.9375 C-826.12642035 961.63822025 -830.06138522 962.11073128 -834.61328125 961.48046875 C-863.39227994 954.21616725 -891.21792534 939.76509686 -913.3125 919.9375 C-913.3125 919.2775 -913.3125 918.6175 -913.3125 917.9375 C-913.90804687 917.67582031 -914.50359375 917.41414062 -915.1171875 917.14453125 C-940.79109693 903.02844937 -953.73680686 858.8853831 -961.3125 832.9375 C-963.36716618 825.34153077 -964.97340942 817.68953491 -966.3125 809.9375 C-966.53776367 808.64199219 -966.53776367 808.64199219 -966.76757812 807.3203125 C-981.69203675 718.17511572 -962.80532772 622.56943626 -925.3125 473.9375 C-925.11700562 473.21566528 -924.92151123 472.49383057 -924.72009277 471.75012207 C-920.92713409 457.75244192 -916.8212238 443.86915464 -912.5078125 430.0234375 C-910.97529442 425.09916756 -909.47340477 420.16646026 -907.9921875 415.2265625 C-890.017556 355.40642865 -869.81242401 296.19854772 -848.27990723 237.5715332 C-847.3466582 235.03050513 -846.41490542 232.48893272 -845.48339844 229.94726562 C-839.89266334 214.7055706 -834.20603905 199.50241956 -828.3125 184.375 C-827.87953613 183.25714111 -827.44657227 182.13928223 -827.00048828 180.98754883 C-822.94783184 170.68500304 -818.43018929 161.54021433 -811.75 152.6875 C-810.83190552 151.45978882 -810.83190552 151.45978882 -809.89526367 150.20727539 C-795.6584828 131.34828265 -780.4136025 117.51024282 -760.3125 104.9375 C-761.75181117 105.39011358 -763.18888999 105.84982979 -764.625 106.3125 C-765.82576172 106.69535156 -765.82576172 106.69535156 -767.05078125 107.0859375 C-769.53974528 107.92581811 -769.53974528 107.92581811 -772.3125 109.9375 C-772.9725 108.9475 -773.6325 107.9575 -774.3125 106.9375 C-773.73242188 106.29425781 -773.15234375 105.65101562 -772.5546875 104.98828125 C-769.80259229 101.24370571 -768.20568661 97.39786177 -766.4375 93.125 C-763.70692893 86.77773657 -761.07548333 81.04159885 -756.3125 75.9375 C-755.81621094 75.37546875 -755.31992187 74.8134375 -754.80859375 74.234375 C-742.34183597 60.8964462 -725.5270457 52.74450349 -709.3125 44.9375 C-708.48862793 44.53547363 -707.66475586 44.13344727 -706.81591797 43.71923828 C-693.87867115 37.43899808 -680.71469278 32.02333794 -667.25 27 C-666.51800385 26.72491608 -665.78600769 26.44983215 -665.03182983 26.16641235 C-655.2312749 22.49796366 -645.46483909 19.50186173 -635.3125 16.9375 C-632.82884777 16.26385097 -630.34577664 15.58805597 -627.86328125 14.91015625 C-614.79540143 11.42844989 -601.54464421 8.71258207 -588.3125 5.9375 C-587.37873535 5.73672852 -586.4449707 5.53595703 -585.48291016 5.32910156 C-576.26654255 3.37598888 -567.30037789 2.65972081 -557.875 2.5625 C-556.89144531 2.54840088 -555.90789062 2.53430176 -554.89453125 2.51977539 C-544.93147213 2.58625188 -536.1527139 5.14262351 -527.25 9.5 C-526.53811523 9.8400708 -525.82623047 10.1801416 -525.09277344 10.53051758 C-519.62698149 13.18527968 -514.34326873 16.12280388 -509.0625 19.125 C-496.96548277 25.99010271 -486.07523218 30.1471393 -471.9375 30.0625 C-470.68924438 30.05851196 -470.68924438 30.05851196 -469.41577148 30.05444336 C-460.73296323 29.99367063 -452.05395805 29.7516521 -443.375 29.5 C-442.676026 29.4804425 -441.977052 29.46088501 -441.25689697 29.44073486 C-423.96905318 29.36768764 -423.96905318 29.36768764 -407.2734375 25.640625 C-400.23114799 23.11550127 -389.94707219 22.88499757 -383.02537537 25.95039368 C-379.79783765 27.12476494 -377.25452763 27.18469229 -373.82055664 27.18041992 C-373.1719656 27.18228994 -372.52337456 27.18415997 -371.85512924 27.18608665 C-369.64419241 27.18977847 -367.43356658 27.17880974 -365.22265625 27.16796875 C-363.57590249 27.16718914 -361.92914819 27.16721406 -360.28239441 27.16795349 C-355.63871514 27.16698174 -350.99516072 27.15238152 -346.35151672 27.13513947 C-342.34811931 27.12150194 -338.34471974 27.11445213 -334.34130669 27.10708618 C-322.254564 27.08401003 -310.16792754 27.04027869 -298.0812664 26.99143982 C-289.90605336 26.95853887 -281.73083773 26.92810576 -273.55560303 26.90106201 C-272.15511647 26.89642827 -272.15511647 26.89642827 -270.72633725 26.89170092 C-268.79703848 26.88532427 -266.8677397 26.8789484 -264.93844092 26.87257326 C-245.42704072 26.80785747 -225.91570594 26.73241853 -206.4043932 26.64515209 C-204.31174025 26.63579758 -202.21908729 26.62644553 -200.12643433 26.61709595 C-199.09089808 26.61246072 -198.05536183 26.6078255 -196.9884457 26.60304981 C-189.63807061 26.57056393 -182.28768623 26.54266424 -174.93728638 26.51644897 C-165.85454923 26.48387895 -156.77187792 26.44394468 -147.68921369 26.39501089 C-142.96513121 26.36973326 -138.24108991 26.34773631 -133.51695824 26.33410454 C-129.13661485 26.32134073 -124.75641711 26.29937572 -120.37615383 26.270105 C-118.77712531 26.26103709 -117.17807352 26.25535186 -115.57902062 26.25328958 C-113.40482897 26.24997474 -111.23105297 26.23452731 -109.0569458 26.2159729 C-107.84318897 26.21044214 -106.62943214 26.20491138 -105.37889481 26.19921303 C-102.3829268 25.94351084 -100.88165803 25.37608916 -98.3125 23.9375 C-97.013125 23.73125 -95.71375 23.525 -94.375 23.3125 C-89.36393161 22.27742686 -85.58642547 19.85401513 -81.3203125 17.10522461 C-76.81644879 14.20755651 -72.22197652 11.76572324 -67.40234375 9.44140625 C-65.22941444 8.38378579 -63.07708928 7.28329062 -60.94140625 6.15234375 C-40.22282496 -4.72664375 -22.39833068 -4.45058976 0 0 Z " fill="#000000" transform="translate(1021.3125,4.0625)"/>
<path d="M0 0 C0 3.70177158 -1.3129559 4.66009501 -3.66357422 7.34521484 C-5.76153843 9.94294986 -7.11300087 12.81597164 -8.5625 15.8125 C-8.85842041 16.41980957 -9.15434082 17.02711914 -9.45922852 17.65283203 C-11.75127094 22.38742035 -13.91806758 27.16991678 -16 32 C-12.535 31.505 -12.535 31.505 -9 31 C-12.25852365 33.1723491 -15.59244728 35.07119658 -19 37 C-19.66 36.01 -20.32 35.02 -21 34 C-20.41992188 33.35675781 -19.83984375 32.71351562 -19.2421875 32.05078125 C-16.4902746 28.30645377 -14.89224112 24.46056351 -13.125 20.1875 C-9.75885665 12.3252915 -6.12718456 6.01937486 0 0 Z " fill="#414141" transform="translate(268,77)"/>
<path d="M0 0 C0.66 0.33 1.32 0.66 2 1 C-0.97 3.97 -3.94 6.94 -7 10 C-7.33 9.01 -7.66 8.02 -8 7 C-5.36 4.69 -2.72 2.38 0 0 Z " fill="#1E1F1E" transform="translate(277,69)"/>
<path d="M0 0 C0.66 0.33 1.32 0.66 2 1 C2 1.66 2 2.32 2 3 C1.01 2.67 0.02 2.34 -1 2 C-0.67 1.34 -0.34 0.68 0 0 Z " fill="#5F5F5D" transform="translate(2,777)"/>
</svg>
